<svg width="23" height="16" viewBox="0 0 23 16" fill="none" xmlns="http://www.w3.org/2000/svg">
<path fill-rule="evenodd" clip-rule="evenodd" d="M0.036185 0.0345593C-0.0180458 0.0873559 -0.00892137 4.71793 0.0475476 5.81107C0.147573 7.74655 0.643284 9.24134 1.68721 10.7555C2.60765 12.0906 3.65226 13.0311 5.10192 13.83C6.60598 14.6587 8.17764 15.0262 10.227 15.0284L11.2489 15.0295L11.2291 11.6913C11.21 8.48163 11.2043 8.32988 11.0797 7.74979C11.0085 7.41793 10.8741 6.91985 10.7812 6.64302C9.59625 3.11285 6.46142 0.569621 2.69292 0.081099C2.09656 0.00377568 0.103615 -0.0311432 0.036185 0.0345593ZM18.3145 8.07361C16.2765 8.4333 14.6112 9.64215 13.6932 11.4283C13.2569 12.2773 13.0805 13.0174 13.0367 14.182L13.0045 15.0385L15.3228 15.0163C17.6076 14.9945 17.649 14.9921 18.198 14.8481C20.5602 14.2284 22.3671 12.3871 22.8284 10.1294C22.9494 9.53683 23.0423 8.2991 22.9801 8.10808C22.9418 7.99054 22.9313 7.98998 20.8365 7.995C19.3654 7.99852 18.6058 8.02221 18.3145 8.07361Z" fill="#1AAA55"/>
</svg>
